<svg width="28" height="29" viewBox="0 0 28 29" fill="none" xmlns="http://www.w3.org/2000/svg">
<g clip-path="url(#clip0_108_346)">
<path d="M3.24923 21.6306C2.91659 21.6306 2.69482 21.4089 2.69482 21.0763C2.69482 15.0887 7.57355 10.21 13.5611 10.21C13.8938 10.21 14.1155 10.4317 14.1155 10.7644C14.1155 11.097 13.8938 11.3188 13.5611 11.3188C8.23883 11.3188 3.80362 15.6431 3.80362 21.0763C3.80362 21.4089 3.58187 21.6306 3.24923 21.6306Z" fill="#323232"/>
<path d="M13.5608 11.3185C13.2281 11.3185 13.0063 11.0967 13.0063 10.7641C13.0063 10.4315 13.2281 10.2097 13.5608 10.2097C17.996 10.2097 21.655 6.55065 21.655 2.11544C21.655 1.7828 21.8768 1.56104 22.2095 1.56104C22.5421 1.56104 22.7638 1.7828 22.7638 2.11544C22.7638 7.21593 18.6612 11.3185 13.5608 11.3185Z" fill="#323232"/>
<path d="M22.0986 24.5135C21.9878 24.5135 21.766 24.4026 21.6551 24.2917C21.4333 24.0699 21.4333 23.7373 21.6551 23.5156C24.5381 20.7435 26.0903 17.0845 26.0903 13.0928C26.0903 9.10113 24.6489 5.33119 21.8769 2.55918C21.6551 2.33742 21.6551 2.00478 21.8769 1.78302C22.0986 1.56126 22.4312 1.56126 22.653 1.78302C25.7577 4.88767 27.31 8.87936 27.31 13.2037C27.31 17.4171 25.536 21.4088 22.5422 24.4026C22.4312 24.5135 22.2096 24.5135 22.0986 24.5135Z" fill="#323232"/>
<path d="M13.2284 28.1725C13.1175 28.1725 13.1175 28.1725 13.0066 28.1725C9.45846 28.1725 6.13205 26.7309 3.69269 24.1808C3.47093 23.959 3.47093 23.6263 3.69269 23.4045C3.91446 23.1829 4.2471 23.1829 4.46885 23.4045C6.68646 25.733 9.7911 27.0636 13.0066 27.0636C16.333 27.0636 19.3268 25.844 21.6553 23.6263C21.8771 23.4045 22.2097 23.4045 22.4314 23.6263C22.6532 23.8481 22.6532 24.1808 22.4314 24.4025C19.9921 26.8419 16.6657 28.1725 13.2284 28.1725Z" fill="#323232"/>
<path d="M1.25288 26.1767C1.142 26.1767 1.03112 26.1767 0.920236 26.0659C0.698475 25.9551 0.587594 25.6224 0.809355 25.4006C3.58136 20.8545 8.12746 17.8607 13.4497 17.3064C13.7824 17.3064 14.0041 17.5281 14.0041 17.7499C14.0041 18.0825 13.7824 18.3043 13.5606 18.3043C8.57097 18.8586 4.35753 21.5198 1.6964 25.8441C1.58551 26.0659 1.47464 26.1767 1.25288 26.1767Z" fill="#323232"/>
<path d="M20.8789 13.9799C20.768 13.9799 20.657 13.9799 20.5462 13.869C20.3244 13.6472 20.2136 13.3146 20.4354 13.0928C20.5462 12.9819 20.657 12.7602 20.768 12.6493C20.8789 12.4275 21.2115 12.3166 21.5441 12.4275C21.7659 12.5384 21.8768 12.9819 21.7659 13.2037C21.655 13.4254 21.5441 13.5363 21.4333 13.6472C21.2115 13.9799 20.9897 13.9799 20.8789 13.9799Z" fill="#323232"/>
<path d="M16.0002 17.8606C15.7786 17.8606 15.5568 17.7497 15.4459 17.5279C15.3349 17.1953 15.4459 16.9736 15.7786 16.8626C16.1112 16.7518 16.3329 16.641 16.6655 16.4192C16.8873 16.3083 17.22 16.4192 17.4418 16.641C17.5526 16.8626 17.4418 17.1953 17.22 17.4171C16.8873 17.5279 16.5547 17.7497 16.222 17.8606C16.222 17.7497 16.1112 17.8606 16.0002 17.8606ZM18.7723 16.3083C18.6614 16.3083 18.4397 16.1974 18.3287 16.0865C18.107 15.8647 18.2179 15.5321 18.4397 15.3104C18.6614 15.0886 18.994 14.8668 19.2158 14.6451C19.4376 14.4233 19.7702 14.4233 19.9919 14.6451C20.2137 14.8668 20.2137 15.1994 19.9919 15.4212C19.7702 15.643 19.4376 15.8647 19.2158 16.1973C18.994 16.1973 18.8832 16.3083 18.7723 16.3083Z" fill="#323232"/>
<path d="M13.45 18.4152C13.1173 18.4152 12.8955 18.1934 12.8955 17.9717C12.8955 17.639 13.1173 17.4172 13.339 17.4172C13.5608 17.4172 13.6716 17.4172 13.8934 17.3064C14.2261 17.3064 14.4479 17.4172 14.5587 17.7499C14.6695 18.0825 14.4479 18.3043 14.1152 18.4152C13.8934 18.4152 13.7826 18.4152 13.45 18.4152C13.5608 18.4152 13.5608 18.4152 13.45 18.4152Z" fill="#323232"/>
<path d="M4.13626 24.2917C4.02539 24.2917 3.80362 24.1808 3.69275 24.0699C2.8057 23.183 2.69482 21.7415 2.69482 21.0762V20.9653C2.69482 20.6327 3.02747 20.4109 3.24923 20.4109C3.58187 20.4109 3.80362 20.7435 3.80362 20.9653C3.80362 21.298 3.80362 22.5177 4.4689 23.2938C4.69067 23.5156 4.69067 23.8481 4.4689 24.0699C4.35803 24.2917 4.24715 24.2917 4.13626 24.2917Z" fill="#323232"/>
</g>
<defs>
<clipPath id="clip0_108_346">
<rect width="27.9418" height="27.9418" fill="white" transform="translate(0.0336914 0.895996)"/>
</clipPath>
</defs>
</svg>
