<svg width="29" height="29" viewBox="0 0 29 29" fill="none" xmlns="http://www.w3.org/2000/svg">
<path d="M7.97277 25.2895C6.30957 25.2895 4.979 23.959 4.979 22.2958C4.979 20.6326 6.30957 19.302 7.97277 19.302C9.63598 19.302 10.9665 20.6326 10.9665 22.2958C10.9665 23.959 9.63598 25.2895 7.97277 25.2895ZM7.97277 20.4108C6.97485 20.4108 6.0878 21.2978 6.0878 22.2958C6.0878 23.2937 6.97485 24.1806 7.97277 24.1806C8.9707 24.1806 9.85773 23.2937 9.85773 22.2958C9.85773 21.2978 9.08157 20.4108 7.97277 20.4108Z" fill="#323232"/>
<path d="M21.1671 25.2895C19.5039 25.2895 18.1733 23.959 18.1733 22.2958C18.1733 20.6326 19.5039 19.302 21.1671 19.302C22.8303 19.302 24.1609 20.6326 24.1609 22.2958C24.1609 23.959 22.8303 25.2895 21.1671 25.2895ZM21.1671 20.4108C20.1692 20.4108 19.2821 21.2978 19.2821 22.2958C19.2821 23.2937 20.1692 24.1806 21.1671 24.1806C22.165 24.1806 23.052 23.2937 23.052 22.2958C23.052 21.2978 22.165 20.4108 21.1671 20.4108Z" fill="#323232"/>
<path d="M12.4069 13.6472H5.19971V14.756H12.4069V13.6472Z" fill="#323232"/>
<path d="M13.0732 8.65747H11.9644V13.9797H13.0732V8.65747Z" fill="#323232"/>
<path d="M4.86808 18.8584H4.31368C3.98104 18.8584 3.75928 18.6366 3.75928 18.304V17.4169C3.75928 17.0842 3.98104 16.8625 4.31368 16.8625H4.86808C5.20072 16.8625 5.42248 17.0842 5.42248 17.4169V18.304C5.42248 18.6366 5.20072 18.8584 4.86808 18.8584Z" fill="#323232"/>
<path d="M25.6021 22.6284H23.4953C23.1627 22.6284 22.941 22.4065 22.941 22.1849C22.83 21.187 22.0539 20.5217 21.056 20.5217C20.0581 20.5217 19.282 21.2978 19.171 22.1849C19.171 22.5175 18.9493 22.6284 18.6167 22.6284H10.3006C9.96796 22.6284 9.74619 22.4065 9.74619 22.1849C9.74619 21.187 8.97004 20.4107 7.97211 20.4107C6.97419 20.4107 6.19802 21.187 6.08714 22.0739C6.08714 22.4066 5.86538 22.6284 5.53274 22.6284H3.86953C3.09338 22.6284 2.42809 22.2957 1.98457 21.6304C1.54105 20.9651 1.54105 20.2999 1.65193 19.6346L2.09545 15.3102V15.1994C2.42809 14.3123 3.31514 13.647 4.20217 13.647H5.08922L7.19594 9.54447C7.52858 8.65742 8.30475 8.10303 9.30268 8.10303H12.5182C12.8509 8.10303 13.0726 8.32478 13.0726 8.65742V17.8605H11.9638V9.21183H9.41355C8.85915 9.21183 8.41563 9.54447 8.30475 9.98798L5.97627 14.4232C5.86538 14.645 5.64363 14.7558 5.53274 14.7558H4.31306C3.86953 14.7558 3.42602 15.0885 3.20425 15.532L2.76073 19.8564C2.64986 20.4107 2.76073 20.7433 2.87161 21.076C3.09338 21.2978 3.42602 21.5196 3.86953 21.5196H5.2001C5.53274 20.2999 6.75243 19.3019 8.08299 19.3019C9.41355 19.3019 10.6332 20.189 10.9659 21.5196H18.284C18.6167 20.2999 19.8363 19.3019 21.1668 19.3019C22.4974 19.3019 23.7171 20.189 24.0498 21.5196H25.713C26.3783 21.5196 26.8217 20.9651 26.8217 20.4107V17.9714H27.9306V20.4107C27.9306 21.6304 26.8217 22.6284 25.6021 22.6284Z" fill="#323232"/>
<path d="M12.5187 22.6282C12.1861 22.6282 11.9644 22.4064 11.9644 22.0738V4.99825C11.9644 4.66561 12.1861 4.44385 12.5187 4.44385H27.3767C27.7094 4.44385 27.9311 4.66561 27.9311 4.99825V17.8604C27.9311 18.1931 27.7094 18.4147 27.3767 18.4147C27.0441 18.4147 26.8223 18.1931 26.8223 17.8604V5.55265H13.0732V22.0738C13.0732 22.2956 12.8514 22.6282 12.5187 22.6282Z" fill="#323232"/>
<path d="M27.9311 8.10303H11.9644V9.21183H27.9311V8.10303Z" fill="#323232"/>
<path d="M27.9311 10.8752H11.9644V11.984H27.9311V10.8752Z" fill="#323232"/>
<path d="M27.9311 13.6472H11.9644V14.756H27.9311V13.6472Z" fill="#323232"/>
<path d="M27.9311 16.4192H11.9644V17.528H27.9311V16.4192Z" fill="#323232"/>
</svg>
