<svg width="20" height="20" viewBox="0 0 20 20" fill="none" xmlns="http://www.w3.org/2000/svg">
<g clip-path="url(#clip0_108_199)">
<path d="M10.0041 4.97877C7.3318 4.97877 5.17634 7.21843 5.17634 9.99509C5.17634 12.7717 7.3318 15.0114 10.0041 15.0114C12.6764 15.0114 14.8318 12.7717 14.8318 9.99509C14.8318 7.21843 12.6764 4.97877 10.0041 4.97877ZM10.0041 13.2563C8.27718 13.2563 6.86541 11.7939 6.86541 9.99509C6.86541 8.19637 8.27298 6.73383 10.0041 6.73383C11.7352 6.73383 13.1427 8.19637 13.1427 9.99509C13.1427 11.7939 11.731 13.2563 10.0041 13.2563ZM16.1553 4.77359C16.1553 5.42409 15.6512 5.94362 15.0293 5.94362C14.4032 5.94362 13.9032 5.41972 13.9032 4.77359C13.9032 4.12744 14.4074 3.60354 15.0293 3.60354C15.6512 3.60354 16.1553 4.12744 16.1553 4.77359ZM19.3528 5.96108C19.2814 4.39375 18.9368 3.00543 17.8318 1.86159C16.7309 0.717744 15.3948 0.359748 13.8865 0.281163C12.3318 0.189482 7.67214 0.189482 6.11752 0.281163C4.61332 0.355382 3.27718 0.713378 2.17214 1.85722C1.0671 3.00107 0.726767 4.38939 0.651137 5.95672C0.562902 7.57207 0.562902 12.4137 0.651137 14.0292C0.722566 15.5964 1.0671 16.9848 2.17214 18.1286C3.27718 19.2724 4.60912 19.6304 6.11752 19.709C7.67214 19.8007 12.3318 19.8007 13.8865 19.709C15.3948 19.6348 16.7309 19.2768 17.8318 18.1286C18.9326 16.9848 19.2772 15.5964 19.3528 14.0292C19.4411 12.4137 19.4411 7.57643 19.3528 5.96108ZM17.3444 15.7623C17.0167 16.618 16.3822 17.2773 15.5545 17.6222C14.3149 18.1329 11.3738 18.015 10.0041 18.015C8.63432 18.015 5.68894 18.1286 4.45365 17.6222C3.63012 17.2816 2.99567 16.6224 2.66374 15.7623C2.17214 14.4744 2.28559 11.4183 2.28559 9.99509C2.28559 8.57183 2.17634 5.5114 2.66374 4.22786C2.99147 3.37216 3.62592 2.71291 4.45365 2.36802C5.69314 1.85722 8.63432 1.9751 10.0041 1.9751C11.3738 1.9751 14.3192 1.86159 15.5545 2.36802C16.378 2.70855 17.0125 3.36779 17.3444 4.22786C17.836 5.51577 17.7226 8.57183 17.7226 9.99509C17.7226 11.4183 17.836 14.4788 17.3444 15.7623Z" fill="#1B1B1B"/>
</g>
<defs>
<clipPath id="clip0_108_199">
<rect width="20" height="20" fill="white"/>
</clipPath>
</defs>
</svg>
