<svg width="25" height="25" viewBox="0 0 25 25" fill="none" xmlns="http://www.w3.org/2000/svg">
<g clip-path="url(#clip0_108_237)">
<path d="M3.12219 18.3095C2.83648 18.3095 2.646 18.1191 2.646 17.8334C2.646 12.6905 6.83647 8.5 11.9794 8.5C12.2651 8.5 12.4555 8.69048 12.4555 8.97619C12.4555 9.26191 12.2651 9.45238 11.9794 9.45238C7.40789 9.45238 3.59837 13.1666 3.59837 17.8334C3.59837 18.1191 3.4079 18.3095 3.12219 18.3095Z" fill="#FE8F17"/>
<path d="M11.9796 9.45224C11.6939 9.45224 11.5034 9.26177 11.5034 8.97606C11.5034 8.69034 11.6939 8.49986 11.9796 8.49986C15.7891 8.49986 18.932 5.357 18.932 1.54748C18.932 1.26177 19.1225 1.07129 19.4082 1.07129C19.6939 1.07129 19.8843 1.26177 19.8843 1.54748C19.8843 5.92843 16.3606 9.45224 11.9796 9.45224Z" fill="#FE8F17"/>
<path d="M19.3129 20.7859C19.2177 20.7859 19.0271 20.6905 18.9319 20.5953C18.7414 20.4048 18.7414 20.1191 18.9319 19.9287C21.4082 17.5477 22.7414 14.4048 22.7414 10.9763C22.7414 7.54772 21.5034 4.30961 19.1225 1.92867C18.9319 1.73819 18.9319 1.45247 19.1225 1.262C19.3129 1.07152 19.5986 1.07152 19.7891 1.262C22.4557 3.92867 23.7891 7.35724 23.7891 11.0715C23.7891 14.6905 22.2653 18.1191 19.6939 20.6905C19.5986 20.7859 19.4082 20.7859 19.3129 20.7859Z" fill="#FE8F17"/>
<path d="M11.6937 23.9285C11.5985 23.9285 11.5985 23.9285 11.5032 23.9285C8.45559 23.9285 5.59845 22.6904 3.50321 20.5C3.31273 20.3095 3.31273 20.0237 3.50321 19.8332C3.69369 19.6428 3.97941 19.6428 4.16987 19.8332C6.07464 21.8332 8.7413 22.9761 11.5032 22.9761C14.3604 22.9761 16.9318 21.9285 18.9318 20.0237C19.1223 19.8332 19.408 19.8332 19.5984 20.0237C19.7889 20.2143 19.7889 20.5 19.5984 20.6904C17.5032 22.7857 14.6461 23.9285 11.6937 23.9285Z" fill="#FE8F17"/>
<path d="M1.40812 22.2142C1.31288 22.2142 1.21764 22.2142 1.1224 22.119C0.931928 22.0238 0.836689 21.7381 1.02717 21.5476C3.40812 17.6428 7.31288 15.0713 11.8843 14.5952C12.17 14.5952 12.3604 14.7856 12.3604 14.9761C12.3604 15.2618 12.17 15.4524 11.9795 15.4524C7.69383 15.9285 4.07479 18.2142 1.78908 21.9285C1.69383 22.119 1.5986 22.2142 1.40812 22.2142Z" fill="#FE8F17"/>
<path d="M18.2651 11.7384C18.1699 11.7384 18.0745 11.7384 17.9793 11.6431C17.7888 11.4527 17.6936 11.1669 17.8841 10.9765C17.9793 10.8812 18.0745 10.6907 18.1699 10.5955C18.2651 10.405 18.5508 10.3098 18.8365 10.405C19.027 10.5003 19.1222 10.8812 19.027 11.0717C18.9317 11.2622 18.8365 11.3574 18.7413 11.4527C18.5508 11.7384 18.3603 11.7384 18.2651 11.7384Z" fill="#FE8F17"/>
<path d="M14.0744 15.0712C13.884 15.0712 13.6934 14.976 13.5982 14.7855C13.5029 14.4998 13.5982 14.3094 13.884 14.2141C14.1697 14.1189 14.3601 14.0237 14.6458 13.8332C14.8363 13.738 15.122 13.8332 15.3125 14.0237C15.4077 14.2141 15.3125 14.4998 15.122 14.6903C14.8363 14.7855 14.5506 14.976 14.2649 15.0712C14.2649 14.976 14.1697 15.0712 14.0744 15.0712ZM16.4554 13.738C16.3601 13.738 16.1697 13.6426 16.0744 13.5474C15.884 13.3569 15.9792 13.0712 16.1697 12.8808C16.3601 12.6903 16.6458 12.4998 16.8363 12.3094C17.0268 12.1189 17.3125 12.1189 17.5029 12.3094C17.6934 12.4998 17.6934 12.7855 17.5029 12.976C17.3125 13.1665 17.0268 13.3569 16.8363 13.6426C16.6458 13.6426 16.5506 13.738 16.4554 13.738Z" fill="#FE8F17"/>
<path d="M11.8839 15.5476C11.5982 15.5476 11.4077 15.357 11.4077 15.1666C11.4077 14.8809 11.5982 14.6904 11.7887 14.6904C11.9791 14.6904 12.0743 14.6904 12.2649 14.5952C12.5506 14.5952 12.7411 14.6904 12.8363 14.9761C12.9315 15.2618 12.7411 15.4524 12.4554 15.5476C12.2649 15.5476 12.1697 15.5476 11.8839 15.5476C11.9791 15.5476 11.9791 15.5476 11.8839 15.5476Z" fill="#FE8F17"/>
<path d="M3.88409 20.5951C3.78885 20.5951 3.59837 20.4998 3.50314 20.4046C2.74123 19.6427 2.646 18.4046 2.646 17.8331V17.7379C2.646 17.4522 2.93171 17.2617 3.12219 17.2617C3.4079 17.2617 3.59837 17.5474 3.59837 17.7379C3.59837 18.0237 3.59837 19.0713 4.1698 19.7379C4.36028 19.9285 4.36028 20.2141 4.1698 20.4046C4.07457 20.5951 3.97933 20.5951 3.88409 20.5951Z" fill="#FE8F17"/>
</g>
<defs>
<clipPath id="clip0_108_237">
<rect width="24" height="24" fill="white" transform="translate(0.360352 0.5)"/>
</clipPath>
</defs>
</svg>
