<svg width="245" height="54" viewBox="0 0 245 54" fill="none" xmlns="http://www.w3.org/2000/svg">
<g clip-path="url(#clip0_108_1409)">
<path d="M4.7438 47.2064H27.5187V41.3392L13.4685 41.3069L13.4361 12.6174H4.71143L4.7438 47.2064Z" fill="#FE8124"/>
<path d="M64.6025 47.2064H73.2139V21.3455L71.2877 16.8521H64.6025V47.2064ZM82.6347 47.2064H91.2622V29.427C91.3355 26.3045 90.6525 23.2104 89.2712 20.408C87.9331 17.865 85.2839 16.5935 81.3235 16.5935C79.6487 16.5828 77.9899 16.9191 76.4519 17.5812C74.914 18.2434 73.5303 19.2169 72.3884 20.4403C71.2404 21.4781 70.3123 22.7351 69.659 24.137C69.0056 25.539 68.6403 27.0574 68.5845 28.6027L73.1654 30.4291C73.0043 28.3298 73.5205 26.234 74.6384 24.4488C75.065 23.8393 75.6349 23.3436 76.2981 23.0054C76.9614 22.6673 77.6977 22.4969 78.4423 22.5092C79.0927 22.4593 79.7439 22.5973 80.3179 22.9069C80.892 23.2164 81.3647 23.6843 81.6796 24.2548C82.4744 26.1205 82.8129 28.1483 82.667 30.1705V47.2064H82.6347ZM100.602 47.2064H109.213V29.427C109.292 26.2938 108.626 23.1865 107.271 20.3595C105.96 17.8219 103.338 16.545 99.3556 16.545C97.6865 16.5529 96.0373 16.9076 94.5129 17.5866C92.9886 18.2656 91.6224 19.2539 90.5014 20.4888C89.363 21.5172 88.4404 22.7612 87.7874 24.1485C87.1344 25.5358 86.764 27.0389 86.6975 28.5704L91.2946 30.3968C91.1301 28.3159 91.6226 26.2358 92.7029 24.4488C93.1304 23.8403 93.7006 23.3454 94.3636 23.0073C95.0266 22.6693 95.7624 22.4983 96.5068 22.5092C97.147 22.4546 97.789 22.5914 98.3511 22.9022C98.9132 23.2131 99.3699 23.6839 99.6632 24.2548C100.421 26.1303 100.742 28.1531 100.602 30.1705V47.2064Z" fill="#FE8124"/>
<path d="M123.636 47.5135C124.864 47.522 126.089 47.4082 127.294 47.1741C128.335 46.9779 129.355 46.6802 130.337 46.2851C131.134 45.9745 131.89 45.5673 132.587 45.0729C133.125 44.7234 133.578 44.2598 133.915 43.7152L134.659 47.2064H141.846V28.2471C141.98 25.8598 141.418 23.4849 140.228 21.4101C139.023 19.648 137.262 18.3393 135.226 17.6926C132.61 16.8674 129.875 16.4797 127.132 16.545C125.434 16.5388 123.738 16.6849 122.066 16.9814C120.541 17.2547 119.06 17.7332 117.663 18.4038C116.376 19.0278 115.235 19.9143 114.312 21.0061C113.363 22.1639 112.708 23.5334 112.402 24.9983L120.836 27.3258C121.02 26.2416 121.471 25.2198 122.147 24.3518C122.728 23.6248 123.494 23.0667 124.364 22.7355C125.269 22.4177 126.222 22.2591 127.181 22.2668C128.283 22.2493 129.38 22.43 130.418 22.8002C131.297 23.1278 132.042 23.7357 132.539 24.5296C133.071 25.5213 133.322 26.6387 133.267 27.7622V28.9098H123.588C121.898 28.8917 120.211 29.0488 118.553 29.3785C117.248 29.6395 116.009 30.1619 114.911 30.914C113.925 31.632 113.153 32.6041 112.678 33.7264C112.125 35.1019 111.866 36.5771 111.917 38.0581C111.866 39.6104 112.136 41.1564 112.71 42.5999C113.199 43.7545 113.994 44.7545 115.008 45.4931C116.12 46.2493 117.377 46.7666 118.699 47.0125C120.299 47.3208 121.926 47.4724 123.555 47.465L123.636 47.5135ZM125.578 42.0019C124.915 42.0071 124.253 41.9421 123.604 41.8079C123.025 41.7076 122.473 41.4874 121.985 41.1614C121.521 40.854 121.16 40.4149 120.949 39.9007C120.686 39.2213 120.564 38.4952 120.593 37.7672C120.566 37.0445 120.687 36.3241 120.949 35.6498C121.148 35.1425 121.491 34.7043 121.936 34.3891C122.429 34.0802 122.98 33.8766 123.555 33.7911C124.229 33.6759 124.911 33.6218 125.595 33.6294H133.008V38.9956C132.588 39.5938 132.033 40.0862 131.39 40.4341C130.579 40.9255 129.701 41.2958 128.783 41.5332C127.727 41.8093 126.638 41.9451 125.546 41.9372L125.578 42.0019Z" fill="#FE8124"/>
<path d="M164.427 31.7868H173.054C173.054 26.5661 172.326 22.7354 170.918 20.2625C169.509 17.7895 166.758 16.5611 162.743 16.5611C159.477 16.409 156.266 17.4488 153.711 19.4866C152.626 20.3546 151.754 21.4576 151.159 22.7122C150.565 23.9667 150.264 25.3399 150.279 26.7277L153.517 28.6834C153.558 27.1083 154.174 25.6024 155.249 24.4487C155.763 23.8262 156.411 23.3282 157.146 22.9923C157.881 22.6563 158.682 22.4911 159.49 22.5091C160.198 22.4767 160.903 22.6208 161.542 22.9283C162.18 23.2359 162.732 23.6973 163.148 24.2709C164.006 25.4508 164.427 27.9561 164.427 31.7868ZM145.002 47.2063H153.63V22.0889L151.655 16.8521H145.019V47.2063H145.002Z" fill="#FE8124"/>
<path d="M191.118 47.5943C193.362 47.6037 195.599 47.3597 197.787 46.8669V41.1775C196.599 41.6074 195.345 41.8262 194.081 41.8241C193.046 41.8842 192.02 41.6124 191.151 41.0482C190.738 40.6266 190.429 40.1155 190.246 39.5548C190.064 38.9941 190.013 38.399 190.099 37.8156V22.8324H199.455V16.8521H190.099V9.90198H181.455V16.8521H174.495V22.8324H181.455V39.7229C181.455 42.6807 182.378 44.7173 184.271 45.8648C186.348 47.0653 188.72 47.6589 191.118 47.5781V47.5943Z" fill="#FE8124"/>
<path d="M44.7415 14.4923C46.2069 14.4231 47.6632 14.7587 48.9501 15.4621C49.808 15.8985 49.9051 16.5127 48.8368 16.5612C40.2416 16.9976 37.506 23.0264 37.506 30.6715C37.3534 33.9204 38.039 37.1539 39.497 40.0623C39.9591 41.0885 40.7032 41.9628 41.643 42.5836C42.5828 43.2044 43.6796 43.5463 44.8062 43.5697C45.9615 43.5538 47.0889 43.2134 48.0594 42.5873C49.0299 41.9613 49.8042 41.075 50.2936 40.03C51.7776 37.1409 52.4806 33.9151 52.3331 30.6715C52.4585 28.4132 52.1452 26.1519 51.4105 24.0123C49.7918 20.3595 44.1102 23.1234 42.1354 26.259C41.0995 27.8753 39.6265 26.453 40.7595 24.4003C43.398 19.5513 52.8187 14.3953 58.646 22.6546C61.5758 26.7924 61.5434 32.6919 59.6172 37.2014C58.7977 39.1716 57.5988 40.9618 56.0884 42.4706C54.6257 43.9416 52.8878 45.1114 50.9734 45.9133C49.0234 46.7395 46.9245 47.1576 44.8062 47.1417C42.7134 47.1794 40.6355 46.7831 38.7038 45.978C36.8043 45.1749 35.0825 44.0049 33.6373 42.5352C32.1476 41.0229 30.9705 39.2324 30.1733 37.2661C29.3186 35.1512 28.8948 32.8873 28.927 30.6069C28.8661 27.7709 29.5722 24.971 30.9709 22.502C32.3696 20.033 34.4091 17.9863 36.8747 16.5773C39.2741 15.1924 42.0026 14.4778 44.7739 14.5085L44.7415 14.4923Z" fill="#FE8124"/>
</g>
<defs>
<clipPath id="clip0_108_1409">
<rect width="194.61" height="37.7182" fill="white" transform="translate(4.71143 9.90198)"/>
</clipPath>
</defs>
</svg>
