<svg width="20" height="20" viewBox="0 0 20 20" fill="none" xmlns="http://www.w3.org/2000/svg">
<path d="M19.5886 9.80571C19.5886 11.5886 19.1543 13.2266 18.2857 14.72C17.4171 16.2134 16.2286 17.4019 14.72 18.2857C13.2114 19.1695 11.5734 19.6114 9.80571 19.6114C8.86093 19.6114 7.93143 19.4743 7.01714 19.2C7.52 18.4076 7.84764 17.7066 8 17.0971C8.09143 16.8076 8.32764 15.9086 8.70857 14.4C8.87621 14.7352 9.18093 15.0248 9.62286 15.2686C10.0648 15.5124 10.5524 15.6343 11.0857 15.6343C12.1219 15.6343 13.0438 15.3448 13.8514 14.7657C14.6591 14.1866 15.2838 13.3866 15.7257 12.3657C16.1676 11.3448 16.3886 10.1943 16.3886 8.91429C16.3886 7.93907 16.1295 7.02476 15.6114 6.17143C15.0934 5.31809 14.3619 4.63238 13.4171 4.11429C12.4724 3.59619 11.3905 3.32191 10.1714 3.29143C9.27236 3.29143 8.43429 3.42095 7.65714 3.68C6.88 3.93905 6.22476 4.26666 5.69143 4.66286C5.15809 5.05905 4.69334 5.52381 4.29714 6.05714C3.90095 6.59048 3.61905 7.13905 3.45143 7.70286C3.28381 8.26664 3.19238 8.83807 3.17714 9.41714C3.17714 10.3009 3.34476 11.0781 3.68 11.7486C4.01524 12.4191 4.51809 12.8914 5.18857 13.1657C5.43238 13.2724 5.59238 13.1886 5.66857 12.9143C5.68381 12.8534 5.71429 12.7238 5.76 12.5257C5.80571 12.3276 5.84381 12.1981 5.87429 12.1371C5.92 11.9391 5.87429 11.7562 5.73714 11.5886C5.29524 11.0705 5.07429 10.4305 5.07429 9.66857C5.07429 8.38857 5.51619 7.28379 6.4 6.35429C7.28379 5.42476 8.4495 4.96 9.89714 4.96C11.1771 4.96 12.1829 5.31048 12.9143 6.01143C13.6457 6.71238 14.0038 7.61907 13.9886 8.73143C13.9886 10.1791 13.6914 11.4057 13.0971 12.4114C12.5029 13.4171 11.7562 13.9276 10.8571 13.9429C10.3391 13.9429 9.92764 13.7524 9.62286 13.3714C9.31807 12.9905 9.21907 12.5486 9.32571 12.0457C9.38664 11.7562 9.50093 11.36 9.66857 10.8571C9.83622 10.3543 9.96571 9.92 10.0571 9.55429C10.1486 9.18857 10.1943 8.86093 10.1943 8.57143C10.1943 8.14479 10.08 7.79429 9.85143 7.52C9.62286 7.24571 9.29521 7.10857 8.86857 7.10857C8.33521 7.10857 7.88571 7.34479 7.52 7.81714C7.15429 8.2895 6.97143 8.89907 6.97143 9.64571C6.97143 10.2552 7.07809 10.7734 7.29143 11.2L6.03429 16.5257C5.89714 17.12 5.84381 17.8743 5.87429 18.7886C4.12191 18.0114 2.70476 16.8152 1.62286 15.2C0.540952 13.5848 0 11.7866 0 9.80571C0 8.02286 0.441905 6.38476 1.32571 4.89143C2.20952 3.39809 3.39048 2.20952 4.86857 1.32571C6.34666 0.441904 7.99236 0 9.80571 0C11.6191 0 13.2571 0.441904 14.72 1.32571C16.1829 2.20952 17.3714 3.39809 18.2857 4.89143C19.2 6.38476 19.6343 8.02286 19.5886 9.80571Z" fill="#1B1B1B"/>
</svg>
