<svg width="25" height="25" viewBox="0 0 25 25" fill="none" xmlns="http://www.w3.org/2000/svg">
<g clip-path="url(#clip0_108_249)">
<path d="M11.1459 23.8332C5.81257 23.8332 1.52686 19.5474 1.52686 14.2141V10.7856C1.52686 5.45221 5.81257 1.1665 11.1459 1.1665H14.5745C19.9078 1.1665 24.1935 5.45221 24.1935 10.7856V14.2141C24.1935 19.5474 19.9078 23.8332 14.5745 23.8332H11.1459ZM11.1459 2.11889C6.384 2.11889 2.47923 6.02364 2.47923 10.7856V14.2141C2.47923 18.976 6.384 22.8808 11.1459 22.8808H14.5745C19.3363 22.8808 23.2411 18.976 23.2411 14.2141V10.7856C23.2411 6.02364 19.3363 2.11889 14.5745 2.11889H11.1459Z" fill="#FE8F17"/>
<path d="M12.8601 13.2621C12.3838 13.2621 12.0981 12.8812 12.0981 12.5001C12.0981 12.024 12.479 11.7383 12.8601 11.7383C13.3362 11.7383 13.6219 12.1192 13.6219 12.5001C13.6219 12.9764 13.3362 13.2621 12.8601 13.2621ZM12.8601 12.3097C12.7648 12.3097 12.6696 12.4049 12.6696 12.5001C12.6696 12.6907 13.0505 12.6907 13.0505 12.5001C13.0505 12.4049 12.9553 12.3097 12.8601 12.3097Z" fill="#FE8F17"/>
<path d="M13.3361 4.5H12.3838V5.83334H13.3361V4.5Z" fill="#FE8F17"/>
<path d="M13.3361 19.0713H12.3838V20.4047H13.3361V19.0713Z" fill="#FE8F17"/>
<path d="M20.765 12.0239H19.4316V12.9763H20.765V12.0239Z" fill="#FE8F17"/>
<path d="M6.19369 12.0239H4.86035V12.9763H6.19369V12.0239Z" fill="#FE8F17"/>
<path d="M9.96366 6.56758L9.30099 5.41064L8.47461 5.88398L9.13727 7.04091L9.96366 6.56758Z" fill="#FE8F17"/>
<path d="M17.2483 19.118L16.5825 17.9629L15.7573 18.4383L16.4232 19.5935L17.2483 19.118Z" fill="#FE8F17"/>
<path d="M19.9518 8.94261L19.4775 8.1167L18.3213 8.7807L18.7956 9.60661L19.9518 8.94261Z" fill="#FE8F17"/>
<path d="M7.40035 16.2215L6.92387 15.397L5.68701 16.1117L6.16349 16.9363L7.40035 16.2215Z" fill="#FE8F17"/>
<path d="M7.38013 8.81169L6.22626 8.14355L5.74902 8.96775L6.90289 9.63587L7.38013 8.81169Z" fill="#FE8F17"/>
<path d="M19.9762 16.0352L18.8213 15.3687L18.3452 16.1936L19.5001 16.8601L19.9762 16.0352Z" fill="#FE8F17"/>
<path d="M17.2216 5.86613L16.3971 5.38965L15.73 6.54405L16.5546 7.02053L17.2216 5.86613Z" fill="#FE8F17"/>
<path d="M9.99333 18.4591L9.16742 17.9849L8.50342 19.1411L9.32933 19.6154L9.99333 18.4591Z" fill="#FE8F17"/>
<path d="M12.86 12.9761C12.5743 12.9761 12.3838 12.7857 12.3838 12.5V7.16661C12.3838 6.8809 12.5743 6.69043 12.86 6.69043C13.1457 6.69043 13.3361 6.8809 13.3361 7.16661V12.5C13.3361 12.7857 13.1457 12.9761 12.86 12.9761Z" fill="#FE8F17"/>
<path d="M11.1452 12.0239H8.19287V12.9763H11.1452V12.0239Z" fill="#FE8F17"/>
</g>
<defs>
<clipPath id="clip0_108_249">
<rect width="24" height="24" fill="white" transform="translate(0.860352 0.5)"/>
</clipPath>
</defs>
</svg>
