<svg width="24" height="24" viewBox="0 0 24 24" fill="none" xmlns="http://www.w3.org/2000/svg">
<path d="M6.19057 20.9524C4.762 20.9524 3.61914 19.8096 3.61914 18.381C3.61914 16.9524 4.762 15.8096 6.19057 15.8096C7.61914 15.8096 8.762 16.9524 8.762 18.381C8.762 19.8096 7.61914 20.9524 6.19057 20.9524ZM6.19057 16.7619C5.33343 16.7619 4.57152 17.5239 4.57152 18.381C4.57152 19.2381 5.33343 20 6.19057 20C7.04771 20 7.80961 19.2381 7.80961 18.381C7.80961 17.5239 7.14295 16.7619 6.19057 16.7619Z" fill="#FE8F17"/>
<path d="M17.5236 20.9524C16.095 20.9524 14.9521 19.8096 14.9521 18.381C14.9521 16.9524 16.095 15.8096 17.5236 15.8096C18.9521 15.8096 20.095 16.9524 20.095 18.381C20.095 19.8096 18.9521 20.9524 17.5236 20.9524ZM17.5236 16.7619C16.6664 16.7619 15.9045 17.5239 15.9045 18.381C15.9045 19.2381 16.6664 20 17.5236 20C18.3807 20 19.1425 19.2381 19.1425 18.381C19.1425 17.5239 18.3807 16.7619 17.5236 16.7619Z" fill="#FE8F17"/>
<path d="M10.0001 10.9521H3.80957V11.9045H10.0001V10.9521Z" fill="#FE8F17"/>
<path d="M10.5715 6.6665H9.61914V11.2379H10.5715V6.6665Z" fill="#FE8F17"/>
<path d="M3.52367 15.4287H3.04748C2.76177 15.4287 2.57129 15.2382 2.57129 14.9524V14.1905C2.57129 13.9048 2.76177 13.7144 3.04748 13.7144H3.52367C3.80938 13.7144 3.99986 13.9048 3.99986 14.1905V14.9524C3.99986 15.2382 3.80938 15.4287 3.52367 15.4287Z" fill="#FE8F17"/>
<path d="M21.3334 18.6666H19.5238C19.2381 18.6666 19.0477 18.4761 19.0477 18.2857C18.9523 17.4286 18.2857 16.8571 17.4286 16.8571C16.5714 16.8571 15.9048 17.5238 15.8095 18.2857C15.8095 18.5714 15.6191 18.6666 15.3334 18.6666H8.19047C7.90475 18.6666 7.71427 18.4761 7.71427 18.2857C7.71427 17.4286 7.04761 16.7618 6.19047 16.7618C5.33333 16.7618 4.66665 17.4286 4.57142 18.1904C4.57142 18.4761 4.38094 18.6666 4.09522 18.6666H2.66665C1.99999 18.6666 1.42856 18.3809 1.04761 17.8095C0.666656 17.2381 0.666656 16.6666 0.761895 16.0952L1.14285 12.3809V12.2857C1.42856 11.5238 2.19047 10.9523 2.95237 10.9523H3.71427L5.52379 7.42852C5.80951 6.66661 6.47618 6.19043 7.33333 6.19043H10.0952C10.3809 6.19043 10.5714 6.3809 10.5714 6.66661V14.5714H9.61904V7.14281H7.42856C6.95237 7.14281 6.57142 7.42852 6.47618 7.80947L4.47618 11.619C4.38094 11.8095 4.19047 11.9047 4.09522 11.9047H3.04761C2.66665 11.9047 2.2857 12.1904 2.09522 12.5714L1.71427 16.2857C1.61904 16.7618 1.71427 17.0475 1.80951 17.3333C1.99999 17.5238 2.2857 17.7143 2.66665 17.7143H3.80951C4.09522 16.6666 5.14285 15.8095 6.2857 15.8095C7.42856 15.8095 8.47618 16.5714 8.7619 17.7143H15.0477C15.3334 16.6666 16.3809 15.8095 17.5238 15.8095C18.6666 15.8095 19.7143 16.5714 20 17.7143H21.4286C22 17.7143 22.3809 17.2381 22.3809 16.7618V14.6666H23.3334V16.7618C23.3334 17.8095 22.3809 18.6666 21.3334 18.6666Z" fill="#FE8F17"/>
<path d="M10.0953 18.6664C9.80961 18.6664 9.61914 18.4759 9.61914 18.1902V3.52355C9.61914 3.23784 9.80961 3.04736 10.0953 3.04736H22.8573C23.143 3.04736 23.3334 3.23784 23.3334 3.52355V14.5712C23.3334 14.8569 23.143 15.0473 22.8573 15.0473C22.5715 15.0473 22.381 14.8569 22.381 14.5712V3.99975H10.5715V18.1902C10.5715 18.3807 10.381 18.6664 10.0953 18.6664Z" fill="#FE8F17"/>
<path d="M23.3334 6.19043H9.61914V7.14281H23.3334V6.19043Z" fill="#FE8F17"/>
<path d="M23.3334 8.57129H9.61914V9.52367H23.3334V8.57129Z" fill="#FE8F17"/>
<path d="M23.3334 10.9521H9.61914V11.9045H23.3334V10.9521Z" fill="#FE8F17"/>
<path d="M23.3334 13.3335H9.61914V14.2859H23.3334V13.3335Z" fill="#FE8F17"/>
</svg>
