<svg width="20" height="18" viewBox="0 0 20 18" fill="none" xmlns="http://www.w3.org/2000/svg">
<path d="M20 2.76609C19.4387 3.59101 18.7562 4.30136 17.9522 4.89714C17.9522 5.01935 17.9522 5.19503 17.9522 5.42417C17.9522 6.53934 17.793 7.6469 17.4744 8.74678C17.1559 9.84666 16.6705 10.9084 16.0182 11.9319C15.3659 12.9554 14.5847 13.8491 13.6746 14.6129C12.7645 15.3767 11.6724 16.003 10.3982 16.4919C9.124 16.9807 7.75121 17.2099 6.27988 17.1793C3.98938 17.1793 1.8961 16.5606 0 15.3232C0.288206 15.3538 0.614333 15.369 0.978382 15.369C2.88965 15.369 4.58855 14.7809 6.07509 13.6047C5.18013 13.5894 4.38377 13.3144 3.68601 12.7797C2.98824 12.245 2.50284 11.5653 2.22981 10.7404C2.51801 10.7862 2.77588 10.8091 3.00341 10.8091C3.36746 10.8091 3.73152 10.7633 4.09556 10.6716C3.13993 10.473 2.35116 9.99945 1.72924 9.25091C1.10732 8.50236 0.796358 7.62394 0.796358 6.61572V6.56989C1.37277 6.89072 1.99469 7.06636 2.66212 7.09691C2.10087 6.71502 1.65339 6.22618 1.31968 5.6304C0.98597 5.03463 0.819115 4.37774 0.819115 3.65975C0.819115 2.91121 1.00872 2.21614 1.38794 1.57454C2.41942 2.84247 3.66325 3.85835 5.11945 4.62217C6.57564 5.38598 8.15321 5.80608 9.85212 5.88246C9.77624 5.56166 9.73836 5.24849 9.73836 4.94297C9.73836 3.79724 10.1403 2.8272 10.9442 2.03283C11.7482 1.23846 12.7114 0.833636 13.8339 0.818359C15.0322 0.818359 16.0334 1.25373 16.8373 2.12449C17.7626 1.94117 18.6348 1.60509 19.4539 1.11625C19.1354 2.09394 18.5286 2.85775 17.6337 3.4077C18.4224 3.31604 19.2112 3.10217 20 2.76609Z" fill="#1B1B1B"/>
</svg>
