<svg width="20" height="16" viewBox="0 0 20 16" fill="none" xmlns="http://www.w3.org/2000/svg">
<path d="M19.0853 3.10464C18.8672 2.22701 18.2246 1.53581 17.4088 1.30124C15.9299 0.875 10 0.875 10 0.875C10 0.875 4.07019 0.875 2.59133 1.30124C1.77546 1.53584 1.13289 2.22701 0.914805 3.10464C0.518555 4.69541 0.518555 8.0144 0.518555 8.0144C0.518555 8.0144 0.518555 11.3334 0.914805 12.9242C1.13289 13.8018 1.77546 14.4642 2.59133 14.6988C4.07019 15.125 10 15.125 10 15.125C10 15.125 15.9299 15.125 17.4088 14.6988C18.2246 14.4642 18.8672 13.8018 19.0853 12.9242C19.4815 11.3334 19.4815 8.0144 19.4815 8.0144C19.4815 8.0144 19.4815 4.69541 19.0853 3.10464ZM8.06064 11.0278V5.00101L13.0169 8.01447L8.06064 11.0278Z" fill="#1B1B1B"/>
</svg>
